<svg width="8" height="5" viewBox="0 0 8 5" fill="none" xmlns="http://www.w3.org/2000/svg">
<path fill-rule="evenodd" clip-rule="evenodd" d="M4 4.68181C3.93053 4.68181 3.86907 4.65682 3.81563 4.60684L0.0801606 1.11293C0.02672 1.06294 -3.00422e-08 1.00546 -2.72018e-08 0.940481C-2.43615e-08 0.875501 0.02672 0.81802 0.0801606 0.768035L0.480962 0.393153C0.534402 0.343168 0.595858 0.318176 0.66533 0.318176C0.734803 0.318176 0.796259 0.343168 0.849699 0.393153L4 3.33973L7.1503 0.393153C7.20374 0.343168 7.2652 0.318176 7.33467 0.318176C7.40414 0.318176 7.4656 0.343168 7.51904 0.393153L7.91984 0.768036C7.97328 0.81802 8 0.875502 8 0.940482C8 1.00546 7.97328 1.06294 7.91984 1.11293L4.18437 4.60684C4.13093 4.65682 4.06947 4.68181 4 4.68181Z" fill="#B9C1CE"/>
</svg>
